<svg width="680" height="680" viewBox="0 0 680 680" xmlns="http://www.w3.org/2000/svg">
<circle cx="340" cy="340" r="318" fill="#ffffff"/>
<circle cx="340" cy="340" r="308" fill="#0a0a0a"/>
<circle cx="340" cy="340" r="290" fill="none" stroke="#D4AF37" stroke-width="3"/>
<circle cx="340" cy="340" r="278" fill="none" stroke="#D4AF37" stroke-width="1.2"/>
<g>
<polygon points="200,300 340,205 480,300 480,282 340,182 200,282" fill="#D4AF37"/>
<rect x="420" y="200" width="18" height="70" fill="#D4AF37"/>
<rect x="352" y="248" width="34" height="34" fill="#0a0a0a" stroke="#D4AF37" stroke-width="3"/>
<line x1="369" y1="248" x2="369" y2="282" stroke="#D4AF37" stroke-width="3"/>
<line x1="352" y1="265" x2="386" y2="265" stroke="#D4AF37" stroke-width="3"/>
</g>
<text x="255" y="470" font-family="Georgia, 'Times New Roman', serif" font-size="185" font-weight="700" fill="#D4AF37" text-anchor="middle">K</text>
<text x="345" y="470" font-family="Georgia, 'Times New Roman', serif" font-size="185" font-weight="700" fill="#D4AF37" text-anchor="middle">K</text>
<text x="450" y="470" font-family="Georgia, 'Times New Roman', serif" font-size="185" font-weight="700" fill="#ffffff" text-anchor="middle">R</text>
<line x1="120" y1="500" x2="560" y2="500" stroke="#D4AF37" stroke-width="2"/>
<text x="340" y="555" font-family="Georgia, 'Times New Roman', serif" font-size="58" font-weight="700" text-anchor="middle">
<tspan fill="#D4AF37">KKR </tspan><tspan fill="#ffffff">INTERIORS</tspan>
</text>
<line x1="120" y1="580" x2="560" y2="580" stroke="#D4AF37" stroke-width="2"/>
<text x="340" y="622" font-family="Georgia, serif" font-size="34" font-style="italic" fill="#D4AF37" text-anchor="middle">• Designing Your Dreams •</text>
</svg>
